G04 #@! TF.GenerationSoftware,KiCad,Pcbnew,(5.1.8)-1*
G04 #@! TF.CreationDate,2021-12-18T01:10:41-08:00*
G04 #@! TF.ProjectId,ensoniq-cartridge,656e736f-6e69-4712-9d63-617274726964,rev?*
G04 #@! TF.SameCoordinates,Original*
G04 #@! TF.FileFunction,Copper,L1,Top*
G04 #@! TF.FilePolarity,Positive*
%FSLAX46Y46*%
G04 Gerber Fmt 4.6, Leading zero omitted, Abs format (unit mm)*
G04 Created by KiCad (PCBNEW (5.1.8)-1) date 2021-12-18 01:10:41*
%MOMM*%
%LPD*%
G01*
G04 APERTURE LIST*
G04 #@! TA.AperFunction,EtchedComponent*
%ADD10C,0.100000*%
G04 #@! TD*
G04 #@! TA.AperFunction,ComponentPad*
%ADD11R,1.524000X1.524000*%
G04 #@! TD*
G04 #@! TA.AperFunction,ComponentPad*
%ADD12C,1.524000*%
G04 #@! TD*
G04 #@! TA.AperFunction,ComponentPad*
%ADD13O,1.400000X1.400000*%
G04 #@! TD*
G04 #@! TA.AperFunction,ComponentPad*
%ADD14C,1.400000*%
G04 #@! TD*
G04 #@! TA.AperFunction,ComponentPad*
%ADD15C,1.600000*%
G04 #@! TD*
G04 #@! TA.AperFunction,ConnectorPad*
%ADD16C,0.100000*%
G04 #@! TD*
G04 #@! TA.AperFunction,ConnectorPad*
%ADD17R,1.270000X7.620000*%
G04 #@! TD*
G04 #@! TA.AperFunction,SMDPad,CuDef*
%ADD18R,1.000000X1.500000*%
G04 #@! TD*
G04 #@! TA.AperFunction,ComponentPad*
%ADD19O,1.700000X1.700000*%
G04 #@! TD*
G04 #@! TA.AperFunction,ComponentPad*
%ADD20R,1.700000X1.700000*%
G04 #@! TD*
G04 #@! TA.AperFunction,ComponentPad*
%ADD21R,1.600000X1.600000*%
G04 #@! TD*
G04 #@! TA.AperFunction,ComponentPad*
%ADD22O,1.600000X1.600000*%
G04 #@! TD*
G04 #@! TA.AperFunction,ViaPad*
%ADD23C,3.302000*%
G04 #@! TD*
G04 #@! TA.AperFunction,ViaPad*
%ADD24C,0.800000*%
G04 #@! TD*
G04 #@! TA.AperFunction,Conductor*
%ADD25C,0.250000*%
G04 #@! TD*
G04 APERTURE END LIST*
D10*
G36*
X135693200Y-113380800D02*
G01*
X135193200Y-113380800D01*
X135193200Y-112780800D01*
X135693200Y-112780800D01*
X135693200Y-113380800D01*
G37*
D11*
X137833100Y-92468700D03*
D12*
X135293100Y-92468700D03*
X132753100Y-92468700D03*
X130213100Y-92468700D03*
X127673100Y-92468700D03*
X125133100Y-92468700D03*
X122593100Y-92468700D03*
X120053100Y-92468700D03*
X117513100Y-92468700D03*
X114973100Y-92468700D03*
X112433100Y-92468700D03*
X109893100Y-92468700D03*
X107353100Y-92468700D03*
X104813100Y-92468700D03*
X104813100Y-107708700D03*
X107353100Y-107708700D03*
X109893100Y-107708700D03*
X112433100Y-107708700D03*
X114973100Y-107708700D03*
X117513100Y-107708700D03*
X120053100Y-107708700D03*
X122593100Y-107708700D03*
X125133100Y-107708700D03*
X127673100Y-107708700D03*
X130213100Y-107708700D03*
X132753100Y-107708700D03*
X135293100Y-107708700D03*
X137833100Y-107708700D03*
D13*
X113538000Y-83312000D03*
D14*
X105918000Y-83312000D03*
D13*
X113538000Y-80899000D03*
D14*
X105918000Y-80899000D03*
D13*
X113538000Y-85725000D03*
D14*
X105918000Y-85725000D03*
D15*
X131288800Y-113080800D03*
X126288800Y-113080800D03*
G04 #@! TA.AperFunction,ConnectorPad*
D16*
G36*
X138439755Y-125680961D02*
G01*
X138449134Y-125683806D01*
X138457779Y-125688427D01*
X138465355Y-125694645D01*
X138471573Y-125702221D01*
X138476194Y-125710866D01*
X138479039Y-125720245D01*
X138480000Y-125730000D01*
X138480000Y-130760000D01*
X140970000Y-130760000D01*
X140979755Y-130760961D01*
X140989134Y-130763806D01*
X140997779Y-130768427D01*
X141005355Y-130774645D01*
X141011573Y-130782221D01*
X141016194Y-130790866D01*
X141019039Y-130800245D01*
X141020000Y-130810000D01*
X141020000Y-132080000D01*
X141019039Y-132089755D01*
X141016194Y-132099134D01*
X141011573Y-132107779D01*
X141005355Y-132115355D01*
X140997779Y-132121573D01*
X140989134Y-132126194D01*
X140979755Y-132129039D01*
X140970000Y-132130000D01*
X137160000Y-132130000D01*
X137150245Y-132129039D01*
X137140866Y-132126194D01*
X137132221Y-132121573D01*
X137124645Y-132115355D01*
X137118427Y-132107779D01*
X137113806Y-132099134D01*
X137110961Y-132089755D01*
X137110000Y-132080000D01*
X137110000Y-125730000D01*
X137110961Y-125720245D01*
X137113806Y-125710866D01*
X137118427Y-125702221D01*
X137124645Y-125694645D01*
X137132221Y-125688427D01*
X137140866Y-125683806D01*
X137150245Y-125680961D01*
X137160000Y-125680000D01*
X138430000Y-125680000D01*
X138439755Y-125680961D01*
G37*
G04 #@! TD.AperFunction*
D17*
X135255000Y-129540000D03*
X132715000Y-129540000D03*
X130175000Y-129540000D03*
X127635000Y-129540000D03*
X125095000Y-129540000D03*
X122555000Y-129540000D03*
X120015000Y-129540000D03*
X117475000Y-129540000D03*
X114935000Y-129540000D03*
X112395000Y-129540000D03*
X109855000Y-129540000D03*
X107315000Y-129540000D03*
X104775000Y-129540000D03*
X102235000Y-129540000D03*
D13*
X133959600Y-110388400D03*
D14*
X126339600Y-110388400D03*
D18*
X134793200Y-113080800D03*
X136093200Y-113080800D03*
D19*
X120548400Y-78587600D03*
X123088400Y-78587600D03*
X125628400Y-78587600D03*
D20*
X128168400Y-78587600D03*
D21*
X121386600Y-111201200D03*
D22*
X118846600Y-111201200D03*
X116306600Y-111201200D03*
X113766600Y-111201200D03*
X111226600Y-111201200D03*
X108686600Y-111201200D03*
X106146600Y-111201200D03*
X104902000Y-89306400D03*
X107442000Y-89306400D03*
X109982000Y-89306400D03*
X112522000Y-89306400D03*
X115062000Y-89306400D03*
X117602000Y-89306400D03*
D21*
X120142000Y-89306400D03*
D23*
X140335000Y-114300000D03*
X100330000Y-84455000D03*
X100330000Y-114300000D03*
X140335000Y-84455000D03*
D24*
X105257600Y-97129600D03*
X117805200Y-104902000D03*
X131318000Y-106426000D03*
X133756400Y-114757200D03*
X131775200Y-115316000D03*
X124155200Y-112115600D03*
X124311550Y-109470368D03*
X110591600Y-87579200D03*
X131165600Y-118414800D03*
X133986467Y-116418987D03*
X136652000Y-111404400D03*
D25*
X105918000Y-80899000D02*
X105918000Y-83312000D01*
X105918000Y-83312000D02*
X105918000Y-85725000D01*
X103776999Y-91432599D02*
X104813100Y-92468700D01*
X103776999Y-87866001D02*
X103776999Y-91432599D01*
X105918000Y-85725000D02*
X103776999Y-87866001D01*
X104813100Y-96685100D02*
X105257600Y-97129600D01*
X104813100Y-92468700D02*
X104813100Y-96685100D01*
X130539162Y-106426000D02*
X131318000Y-106426000D01*
X129015162Y-104902000D02*
X130539162Y-106426000D01*
X117805200Y-104902000D02*
X129015162Y-104902000D01*
X132965200Y-114757200D02*
X131288800Y-113080800D01*
X133756400Y-114757200D02*
X132965200Y-114757200D01*
X133756400Y-114117600D02*
X134793200Y-113080800D01*
X133756400Y-114757200D02*
X133756400Y-114117600D01*
X135153400Y-110388400D02*
X137833100Y-107708700D01*
X133959600Y-110388400D02*
X135153400Y-110388400D01*
X126288800Y-113080800D02*
X128981200Y-110388400D01*
X128981200Y-110388400D02*
X133959600Y-110388400D01*
X127420170Y-113080800D02*
X126288800Y-113080800D01*
X132715000Y-129540000D02*
X132715000Y-118375630D01*
X132715000Y-118375630D02*
X127420170Y-113080800D01*
X121386600Y-111201200D02*
X121451202Y-111136598D01*
X126288800Y-111949430D02*
X126288800Y-113080800D01*
X125475968Y-111136598D02*
X126288800Y-111949430D01*
X121451202Y-111136598D02*
X125475968Y-111136598D01*
X137795000Y-129540000D02*
X137795000Y-126111000D01*
X137795000Y-125799315D02*
X137795000Y-126111000D01*
X137795000Y-121335800D02*
X131775200Y-115316000D01*
X137795000Y-129540000D02*
X137795000Y-121335800D01*
X118846600Y-111201200D02*
X119971601Y-110076199D01*
X119971601Y-110076199D02*
X123836797Y-110076199D01*
X123836797Y-110076199D02*
X124148998Y-110388400D01*
X124148998Y-110388400D02*
X126339600Y-110388400D01*
X102235000Y-129540000D02*
X102108000Y-129667000D01*
X102235000Y-129540000D02*
X102235000Y-121031000D01*
X102306001Y-115248481D02*
X102306001Y-103383199D01*
X102235000Y-115319482D02*
X102306001Y-115248481D01*
X102235000Y-129540000D02*
X102235000Y-115319482D01*
X118966099Y-93555701D02*
X120053100Y-92468700D01*
X102306001Y-103383199D02*
X112133499Y-93555701D01*
X112133499Y-93555701D02*
X118966099Y-93555701D01*
X102826079Y-111438085D02*
X102826079Y-106750732D01*
X115571099Y-94005712D02*
X121056088Y-94005712D01*
X121056088Y-94005712D02*
X122593100Y-92468700D01*
X102826079Y-106750732D02*
X115571099Y-94005712D01*
X104775000Y-129540000D02*
X104775000Y-113387007D01*
X104775000Y-113387007D02*
X102826079Y-111438085D01*
X107315000Y-129540000D02*
X107315000Y-122555000D01*
X124371101Y-93230699D02*
X125133100Y-92468700D01*
X123146077Y-94455723D02*
X124371101Y-93230699D01*
X115757499Y-94455723D02*
X123146077Y-94455723D01*
X103276090Y-106937132D02*
X115757499Y-94455723D01*
X103276090Y-111251686D02*
X103276090Y-106937132D01*
X107315000Y-115290597D02*
X103276090Y-111251686D01*
X107315000Y-129540000D02*
X107315000Y-115290597D01*
X109855000Y-129540000D02*
X109855000Y-122758200D01*
X123019389Y-97122411D02*
X127673100Y-92468700D01*
X103726099Y-107186939D02*
X113790627Y-97122411D01*
X103726099Y-111065286D02*
X103726099Y-107186939D01*
X109855000Y-117194187D02*
X103726099Y-111065286D01*
X109855000Y-129540000D02*
X109855000Y-117194187D01*
X113790627Y-97122411D02*
X123019389Y-97122411D01*
X112395000Y-129540000D02*
X112395000Y-122656600D01*
X122569378Y-100112422D02*
X129451101Y-93230699D01*
X105021599Y-110661199D02*
X106266099Y-109416699D01*
X113375989Y-100112422D02*
X122569378Y-100112422D01*
X129451101Y-93230699D02*
X130213100Y-92468700D01*
X106266099Y-107222312D02*
X113375989Y-100112422D01*
X112395000Y-119097778D02*
X105021599Y-111724376D01*
X112395000Y-129540000D02*
X112395000Y-119097778D01*
X105021599Y-111724376D02*
X105021599Y-110661199D01*
X106266099Y-109416699D02*
X106266099Y-107222312D01*
X114935000Y-129540000D02*
X114935000Y-122809000D01*
X114935000Y-129540000D02*
X114935000Y-119114602D01*
X124144178Y-101077622D02*
X131991101Y-93230699D01*
X108806099Y-107249123D02*
X114977600Y-101077622D01*
X114935000Y-119114602D02*
X107561599Y-111741201D01*
X114977600Y-101077622D02*
X124144178Y-101077622D01*
X107561599Y-109108963D02*
X108806099Y-107864463D01*
X107561599Y-111741201D02*
X107561599Y-109108963D01*
X131991101Y-93230699D02*
X132753100Y-92468700D01*
X108806099Y-107864463D02*
X108806099Y-107249123D01*
X127635000Y-129540000D02*
X127635000Y-121640600D01*
X124155200Y-112612202D02*
X124155200Y-112115600D01*
X127635000Y-116092002D02*
X124155200Y-112612202D01*
X127635000Y-129540000D02*
X127635000Y-116092002D01*
X135293100Y-92468700D02*
X135293100Y-106099938D01*
X133000193Y-109070369D02*
X124711549Y-109070369D01*
X124711549Y-109070369D02*
X124311550Y-109470368D01*
X134206099Y-107864463D02*
X133000193Y-109070369D01*
X134206099Y-107186939D02*
X134206099Y-107864463D01*
X135293100Y-106099938D02*
X134206099Y-107186939D01*
X107353100Y-91757500D02*
X107353100Y-92468700D01*
X104902000Y-89306400D02*
X107353100Y-91757500D01*
X109893100Y-91757500D02*
X109893100Y-92468700D01*
X107442000Y-89306400D02*
X109893100Y-91757500D01*
X112433100Y-91757500D02*
X112433100Y-92468700D01*
X109982000Y-89306400D02*
X112433100Y-91757500D01*
X111396999Y-89846401D02*
X114019298Y-92468700D01*
X114019298Y-92468700D02*
X114973100Y-92468700D01*
X111396999Y-88384599D02*
X111396999Y-89846401D01*
X110591600Y-87579200D02*
X111396999Y-88384599D01*
X122555000Y-129540000D02*
X122555000Y-123012200D01*
X118966099Y-108795701D02*
X120053100Y-107708700D01*
X115181599Y-110661199D02*
X117047097Y-108795701D01*
X122555000Y-119114602D02*
X115181599Y-111741201D01*
X122555000Y-129540000D02*
X122555000Y-119114602D01*
X115181599Y-111741201D02*
X115181599Y-110661199D01*
X117047097Y-108795701D02*
X118966099Y-108795701D01*
X125095000Y-129540000D02*
X125095000Y-122351800D01*
X124046099Y-108795701D02*
X125133100Y-107708700D01*
X125095000Y-129540000D02*
X125095000Y-119114602D01*
X125095000Y-119114602D02*
X117721599Y-111741201D01*
X117721599Y-110676611D02*
X119602509Y-108795701D01*
X117721599Y-111741201D02*
X117721599Y-110676611D01*
X119602509Y-108795701D02*
X124046099Y-108795701D01*
X120015000Y-129540000D02*
X120015000Y-123113800D01*
X126586099Y-106621699D02*
X127673100Y-107708700D01*
X116426099Y-107186939D02*
X116991339Y-106621699D01*
X116426099Y-107864463D02*
X116426099Y-107186939D01*
X114507097Y-108795701D02*
X115494861Y-108795701D01*
X115494861Y-108795701D02*
X116426099Y-107864463D01*
X112641599Y-111741201D02*
X112641599Y-110661199D01*
X112641599Y-110661199D02*
X114507097Y-108795701D01*
X120015000Y-119114602D02*
X112641599Y-111741201D01*
X116991339Y-106621699D02*
X126586099Y-106621699D01*
X120015000Y-129540000D02*
X120015000Y-119114602D01*
X117475000Y-129540000D02*
X117475000Y-123012200D01*
X111346099Y-107186939D02*
X112615038Y-105918000D01*
X110101599Y-111741201D02*
X110101599Y-109108963D01*
X111346099Y-107864463D02*
X111346099Y-107186939D01*
X117475000Y-119114602D02*
X110101599Y-111741201D01*
X110101599Y-109108963D02*
X111346099Y-107864463D01*
X117475000Y-129540000D02*
X117475000Y-119114602D01*
X128422400Y-105918000D02*
X130213100Y-107708700D01*
X112615038Y-105918000D02*
X128422400Y-105918000D01*
X131942190Y-89981390D02*
X120548400Y-78587600D01*
X135345790Y-89981390D02*
X131942190Y-89981390D01*
X137833100Y-92468700D02*
X135345790Y-89981390D01*
X133840101Y-106621699D02*
X132753100Y-107708700D01*
X133840101Y-91946939D02*
X133840101Y-106621699D01*
X133274861Y-91381699D02*
X133840101Y-91946939D01*
X113647001Y-89556403D02*
X115472297Y-91381699D01*
X113647001Y-88766399D02*
X113647001Y-89556403D01*
X115472297Y-91381699D02*
X133274861Y-91381699D01*
X112512999Y-87632397D02*
X113647001Y-88766399D01*
X112512999Y-84337001D02*
X112512999Y-87632397D01*
X113538000Y-83312000D02*
X112512999Y-84337001D01*
X130175000Y-119405400D02*
X131165600Y-118414800D01*
X130175000Y-129540000D02*
X130175000Y-119405400D01*
X136093200Y-114312254D02*
X133986467Y-116418987D01*
X136093200Y-113080800D02*
X136093200Y-114312254D01*
X136652000Y-112522000D02*
X136093200Y-113080800D01*
X136652000Y-111404400D02*
X136652000Y-112522000D01*
X136380101Y-106621699D02*
X135293100Y-107708700D01*
X136380101Y-91946939D02*
X136380101Y-106621699D01*
X134864563Y-90431401D02*
X136380101Y-91946939D01*
X116187001Y-90431401D02*
X134864563Y-90431401D01*
X115062000Y-89306400D02*
X116187001Y-90431401D01*
M02*
