G04 #@! TF.GenerationSoftware,KiCad,Pcbnew,(5.1.8)-1*
G04 #@! TF.CreationDate,2021-12-18T01:10:41-08:00*
G04 #@! TF.ProjectId,ensoniq-cartridge,656e736f-6e69-4712-9d63-617274726964,rev?*
G04 #@! TF.SameCoordinates,Original*
G04 #@! TF.FileFunction,Legend,Bot*
G04 #@! TF.FilePolarity,Positive*
%FSLAX46Y46*%
G04 Gerber Fmt 4.6, Leading zero omitted, Abs format (unit mm)*
G04 Created by KiCad (PCBNEW (5.1.8)-1) date 2021-12-18 01:10:41*
%MOMM*%
%LPD*%
G01*
G04 APERTURE LIST*
%ADD10C,0.101600*%
%ADD11C,0.150000*%
%ADD12R,1.524000X1.524000*%
%ADD13C,1.524000*%
%ADD14O,1.400000X1.400000*%
%ADD15C,1.400000*%
%ADD16C,1.600000*%
%ADD17C,0.100000*%
%ADD18R,1.270000X7.620000*%
%ADD19O,1.700000X1.700000*%
%ADD20R,1.700000X1.700000*%
%ADD21R,1.600000X1.600000*%
%ADD22O,1.600000X1.600000*%
G04 APERTURE END LIST*
D10*
X137262264Y-122419371D02*
X136928931Y-122419371D01*
X136786074Y-122943180D02*
X137262264Y-122943180D01*
X137262264Y-121943180D01*
X136786074Y-121943180D01*
X136357502Y-122276514D02*
X136357502Y-122943180D01*
X136357502Y-122371752D02*
X136309883Y-122324133D01*
X136214645Y-122276514D01*
X136071788Y-122276514D01*
X135976550Y-122324133D01*
X135928931Y-122419371D01*
X135928931Y-122943180D01*
X135500360Y-122895561D02*
X135405121Y-122943180D01*
X135214645Y-122943180D01*
X135119407Y-122895561D01*
X135071788Y-122800323D01*
X135071788Y-122752704D01*
X135119407Y-122657466D01*
X135214645Y-122609847D01*
X135357502Y-122609847D01*
X135452740Y-122562228D01*
X135500360Y-122466990D01*
X135500360Y-122419371D01*
X135452740Y-122324133D01*
X135357502Y-122276514D01*
X135214645Y-122276514D01*
X135119407Y-122324133D01*
X134500360Y-122943180D02*
X134595598Y-122895561D01*
X134643217Y-122847942D01*
X134690836Y-122752704D01*
X134690836Y-122466990D01*
X134643217Y-122371752D01*
X134595598Y-122324133D01*
X134500360Y-122276514D01*
X134357502Y-122276514D01*
X134262264Y-122324133D01*
X134214645Y-122371752D01*
X134167026Y-122466990D01*
X134167026Y-122752704D01*
X134214645Y-122847942D01*
X134262264Y-122895561D01*
X134357502Y-122943180D01*
X134500360Y-122943180D01*
X133738455Y-122276514D02*
X133738455Y-122943180D01*
X133738455Y-122371752D02*
X133690836Y-122324133D01*
X133595598Y-122276514D01*
X133452740Y-122276514D01*
X133357502Y-122324133D01*
X133309883Y-122419371D01*
X133309883Y-122943180D01*
X132833693Y-122943180D02*
X132833693Y-122276514D01*
X132833693Y-121943180D02*
X132881312Y-121990800D01*
X132833693Y-122038419D01*
X132786074Y-121990800D01*
X132833693Y-121943180D01*
X132833693Y-122038419D01*
X131928931Y-122276514D02*
X131928931Y-123276514D01*
X131928931Y-122895561D02*
X132024169Y-122943180D01*
X132214645Y-122943180D01*
X132309883Y-122895561D01*
X132357502Y-122847942D01*
X132405121Y-122752704D01*
X132405121Y-122466990D01*
X132357502Y-122371752D01*
X132309883Y-122324133D01*
X132214645Y-122276514D01*
X132024169Y-122276514D01*
X131928931Y-122324133D01*
X130690836Y-122419371D02*
X130357502Y-122419371D01*
X130214645Y-122943180D02*
X130690836Y-122943180D01*
X130690836Y-121943180D01*
X130214645Y-121943180D01*
X129833693Y-122895561D02*
X129690836Y-122943180D01*
X129452740Y-122943180D01*
X129357502Y-122895561D01*
X129309883Y-122847942D01*
X129262264Y-122752704D01*
X129262264Y-122657466D01*
X129309883Y-122562228D01*
X129357502Y-122514609D01*
X129452740Y-122466990D01*
X129643217Y-122419371D01*
X129738455Y-122371752D01*
X129786074Y-122324133D01*
X129833693Y-122228895D01*
X129833693Y-122133657D01*
X129786074Y-122038419D01*
X129738455Y-121990800D01*
X129643217Y-121943180D01*
X129405121Y-121943180D01*
X129262264Y-121990800D01*
X128167026Y-123038419D02*
X128262264Y-122990800D01*
X128357502Y-122895561D01*
X128500360Y-122752704D01*
X128595598Y-122705085D01*
X128690836Y-122705085D01*
X128643217Y-122943180D02*
X128738455Y-122895561D01*
X128833693Y-122800323D01*
X128881312Y-122609847D01*
X128881312Y-122276514D01*
X128833693Y-122086038D01*
X128738455Y-121990800D01*
X128643217Y-121943180D01*
X128452740Y-121943180D01*
X128357502Y-121990800D01*
X128262264Y-122086038D01*
X128214645Y-122276514D01*
X128214645Y-122609847D01*
X128262264Y-122800323D01*
X128357502Y-122895561D01*
X128452740Y-122943180D01*
X128643217Y-122943180D01*
X127786074Y-122562228D02*
X127024169Y-122562228D01*
X126024169Y-122943180D02*
X126595598Y-122943180D01*
X126309883Y-122943180D02*
X126309883Y-121943180D01*
X126405121Y-122086038D01*
X126500360Y-122181276D01*
X126595598Y-122228895D01*
X124881312Y-121895561D02*
X125738455Y-123181276D01*
X124595598Y-122895561D02*
X124452740Y-122943180D01*
X124214645Y-122943180D01*
X124119407Y-122895561D01*
X124071788Y-122847942D01*
X124024169Y-122752704D01*
X124024169Y-122657466D01*
X124071788Y-122562228D01*
X124119407Y-122514609D01*
X124214645Y-122466990D01*
X124405121Y-122419371D01*
X124500360Y-122371752D01*
X124547979Y-122324133D01*
X124595598Y-122228895D01*
X124595598Y-122133657D01*
X124547979Y-122038419D01*
X124500360Y-121990800D01*
X124405121Y-121943180D01*
X124167026Y-121943180D01*
X124024169Y-121990800D01*
X122928931Y-123038419D02*
X123024169Y-122990800D01*
X123119407Y-122895561D01*
X123262264Y-122752704D01*
X123357502Y-122705085D01*
X123452740Y-122705085D01*
X123405121Y-122943180D02*
X123500360Y-122895561D01*
X123595598Y-122800323D01*
X123643217Y-122609847D01*
X123643217Y-122276514D01*
X123595598Y-122086038D01*
X123500360Y-121990800D01*
X123405121Y-121943180D01*
X123214645Y-121943180D01*
X123119407Y-121990800D01*
X123024169Y-122086038D01*
X122976550Y-122276514D01*
X122976550Y-122609847D01*
X123024169Y-122800323D01*
X123119407Y-122895561D01*
X123214645Y-122943180D01*
X123405121Y-122943180D01*
X122547979Y-122562228D02*
X121786074Y-122562228D01*
X121167026Y-122371752D02*
X121262264Y-122324133D01*
X121309883Y-122276514D01*
X121357502Y-122181276D01*
X121357502Y-122133657D01*
X121309883Y-122038419D01*
X121262264Y-121990800D01*
X121167026Y-121943180D01*
X120976550Y-121943180D01*
X120881312Y-121990800D01*
X120833693Y-122038419D01*
X120786074Y-122133657D01*
X120786074Y-122181276D01*
X120833693Y-122276514D01*
X120881312Y-122324133D01*
X120976550Y-122371752D01*
X121167026Y-122371752D01*
X121262264Y-122419371D01*
X121309883Y-122466990D01*
X121357502Y-122562228D01*
X121357502Y-122752704D01*
X121309883Y-122847942D01*
X121262264Y-122895561D01*
X121167026Y-122943180D01*
X120976550Y-122943180D01*
X120881312Y-122895561D01*
X120833693Y-122847942D01*
X120786074Y-122752704D01*
X120786074Y-122562228D01*
X120833693Y-122466990D01*
X120881312Y-122419371D01*
X120976550Y-122371752D01*
X120167026Y-121943180D02*
X120071788Y-121943180D01*
X119976550Y-121990800D01*
X119928931Y-122038419D01*
X119881312Y-122133657D01*
X119833693Y-122324133D01*
X119833693Y-122562228D01*
X119881312Y-122752704D01*
X119928931Y-122847942D01*
X119976550Y-122895561D01*
X120071788Y-122943180D01*
X120167026Y-122943180D01*
X120262264Y-122895561D01*
X120309883Y-122847942D01*
X120357502Y-122752704D01*
X120405121Y-122562228D01*
X120405121Y-122324133D01*
X120357502Y-122133657D01*
X120309883Y-122038419D01*
X120262264Y-121990800D01*
X120167026Y-121943180D01*
X118643217Y-122419371D02*
X118309883Y-122419371D01*
X118167026Y-122943180D02*
X118643217Y-122943180D01*
X118643217Y-121943180D01*
X118167026Y-121943180D01*
X117738455Y-122419371D02*
X117405121Y-122419371D01*
X117262264Y-122943180D02*
X117738455Y-122943180D01*
X117738455Y-121943180D01*
X117262264Y-121943180D01*
X116833693Y-122943180D02*
X116833693Y-121943180D01*
X116452740Y-121943180D01*
X116357502Y-121990800D01*
X116309883Y-122038419D01*
X116262264Y-122133657D01*
X116262264Y-122276514D01*
X116309883Y-122371752D01*
X116357502Y-122419371D01*
X116452740Y-122466990D01*
X116833693Y-122466990D01*
X115262264Y-122943180D02*
X115595598Y-122466990D01*
X115833693Y-122943180D02*
X115833693Y-121943180D01*
X115452740Y-121943180D01*
X115357502Y-121990800D01*
X115309883Y-122038419D01*
X115262264Y-122133657D01*
X115262264Y-122276514D01*
X115309883Y-122371752D01*
X115357502Y-122419371D01*
X115452740Y-122466990D01*
X115833693Y-122466990D01*
X114643217Y-121943180D02*
X114452740Y-121943180D01*
X114357502Y-121990800D01*
X114262264Y-122086038D01*
X114214645Y-122276514D01*
X114214645Y-122609847D01*
X114262264Y-122800323D01*
X114357502Y-122895561D01*
X114452740Y-122943180D01*
X114643217Y-122943180D01*
X114738455Y-122895561D01*
X114833693Y-122800323D01*
X114881312Y-122609847D01*
X114881312Y-122276514D01*
X114833693Y-122086038D01*
X114738455Y-121990800D01*
X114643217Y-121943180D01*
X113786074Y-122943180D02*
X113786074Y-121943180D01*
X113452740Y-122657466D01*
X113119407Y-121943180D01*
X113119407Y-122943180D01*
X111309883Y-122847942D02*
X111357502Y-122895561D01*
X111500360Y-122943180D01*
X111595598Y-122943180D01*
X111738455Y-122895561D01*
X111833693Y-122800323D01*
X111881312Y-122705085D01*
X111928931Y-122514609D01*
X111928931Y-122371752D01*
X111881312Y-122181276D01*
X111833693Y-122086038D01*
X111738455Y-121990800D01*
X111595598Y-121943180D01*
X111500360Y-121943180D01*
X111357502Y-121990800D01*
X111309883Y-122038419D01*
X110452740Y-122943180D02*
X110452740Y-122419371D01*
X110500360Y-122324133D01*
X110595598Y-122276514D01*
X110786074Y-122276514D01*
X110881312Y-122324133D01*
X110452740Y-122895561D02*
X110547979Y-122943180D01*
X110786074Y-122943180D01*
X110881312Y-122895561D01*
X110928931Y-122800323D01*
X110928931Y-122705085D01*
X110881312Y-122609847D01*
X110786074Y-122562228D01*
X110547979Y-122562228D01*
X110452740Y-122514609D01*
X109976550Y-122943180D02*
X109976550Y-122276514D01*
X109976550Y-122466990D02*
X109928931Y-122371752D01*
X109881312Y-122324133D01*
X109786074Y-122276514D01*
X109690836Y-122276514D01*
X109500360Y-122276514D02*
X109119407Y-122276514D01*
X109357502Y-121943180D02*
X109357502Y-122800323D01*
X109309883Y-122895561D01*
X109214645Y-122943180D01*
X109119407Y-122943180D01*
X108786074Y-122943180D02*
X108786074Y-122276514D01*
X108786074Y-122466990D02*
X108738455Y-122371752D01*
X108690836Y-122324133D01*
X108595598Y-122276514D01*
X108500360Y-122276514D01*
X108167026Y-122943180D02*
X108167026Y-122276514D01*
X108167026Y-121943180D02*
X108214645Y-121990800D01*
X108167026Y-122038419D01*
X108119407Y-121990800D01*
X108167026Y-121943180D01*
X108167026Y-122038419D01*
X107262264Y-122943180D02*
X107262264Y-121943180D01*
X107262264Y-122895561D02*
X107357502Y-122943180D01*
X107547979Y-122943180D01*
X107643217Y-122895561D01*
X107690836Y-122847942D01*
X107738455Y-122752704D01*
X107738455Y-122466990D01*
X107690836Y-122371752D01*
X107643217Y-122324133D01*
X107547979Y-122276514D01*
X107357502Y-122276514D01*
X107262264Y-122324133D01*
X106357502Y-122276514D02*
X106357502Y-123086038D01*
X106405121Y-123181276D01*
X106452740Y-123228895D01*
X106547979Y-123276514D01*
X106690836Y-123276514D01*
X106786074Y-123228895D01*
X106357502Y-122895561D02*
X106452740Y-122943180D01*
X106643217Y-122943180D01*
X106738455Y-122895561D01*
X106786074Y-122847942D01*
X106833693Y-122752704D01*
X106833693Y-122466990D01*
X106786074Y-122371752D01*
X106738455Y-122324133D01*
X106643217Y-122276514D01*
X106452740Y-122276514D01*
X106357502Y-122324133D01*
X105500360Y-122895561D02*
X105595598Y-122943180D01*
X105786074Y-122943180D01*
X105881312Y-122895561D01*
X105928931Y-122800323D01*
X105928931Y-122419371D01*
X105881312Y-122324133D01*
X105786074Y-122276514D01*
X105595598Y-122276514D01*
X105500360Y-122324133D01*
X105452740Y-122419371D01*
X105452740Y-122514609D01*
X105928931Y-122609847D01*
X136976550Y-123544780D02*
X136976550Y-124259066D01*
X137024169Y-124401923D01*
X137119407Y-124497161D01*
X137262264Y-124544780D01*
X137357502Y-124544780D01*
X136071788Y-124544780D02*
X136071788Y-124020971D01*
X136119407Y-123925733D01*
X136214645Y-123878114D01*
X136405121Y-123878114D01*
X136500360Y-123925733D01*
X136071788Y-124497161D02*
X136167026Y-124544780D01*
X136405121Y-124544780D01*
X136500360Y-124497161D01*
X136547979Y-124401923D01*
X136547979Y-124306685D01*
X136500360Y-124211447D01*
X136405121Y-124163828D01*
X136167026Y-124163828D01*
X136071788Y-124116209D01*
X135595598Y-124544780D02*
X135595598Y-123878114D01*
X135595598Y-123973352D02*
X135547979Y-123925733D01*
X135452740Y-123878114D01*
X135309883Y-123878114D01*
X135214645Y-123925733D01*
X135167026Y-124020971D01*
X135167026Y-124544780D01*
X135167026Y-124020971D02*
X135119407Y-123925733D01*
X135024169Y-123878114D01*
X134881312Y-123878114D01*
X134786074Y-123925733D01*
X134738455Y-124020971D01*
X134738455Y-124544780D01*
X133881312Y-124497161D02*
X133976550Y-124544780D01*
X134167026Y-124544780D01*
X134262264Y-124497161D01*
X134309883Y-124401923D01*
X134309883Y-124020971D01*
X134262264Y-123925733D01*
X134167026Y-123878114D01*
X133976550Y-123878114D01*
X133881312Y-123925733D01*
X133833693Y-124020971D01*
X133833693Y-124116209D01*
X134309883Y-124211447D01*
X133452740Y-124497161D02*
X133357502Y-124544780D01*
X133167026Y-124544780D01*
X133071788Y-124497161D01*
X133024169Y-124401923D01*
X133024169Y-124354304D01*
X133071788Y-124259066D01*
X133167026Y-124211447D01*
X133309883Y-124211447D01*
X133405121Y-124163828D01*
X133452740Y-124068590D01*
X133452740Y-124020971D01*
X133405121Y-123925733D01*
X133309883Y-123878114D01*
X133167026Y-123878114D01*
X133071788Y-123925733D01*
X132595598Y-124449542D02*
X132547979Y-124497161D01*
X132595598Y-124544780D01*
X132643217Y-124497161D01*
X132595598Y-124449542D01*
X132595598Y-124544780D01*
X132119407Y-124544780D02*
X132119407Y-123544780D01*
X132119407Y-124020971D02*
X131547979Y-124020971D01*
X131547979Y-124544780D02*
X131547979Y-123544780D01*
X130643217Y-124544780D02*
X130643217Y-124020971D01*
X130690836Y-123925733D01*
X130786074Y-123878114D01*
X130976550Y-123878114D01*
X131071788Y-123925733D01*
X130643217Y-124497161D02*
X130738455Y-124544780D01*
X130976550Y-124544780D01*
X131071788Y-124497161D01*
X131119407Y-124401923D01*
X131119407Y-124306685D01*
X131071788Y-124211447D01*
X130976550Y-124163828D01*
X130738455Y-124163828D01*
X130643217Y-124116209D01*
X129738455Y-123878114D02*
X129738455Y-124687638D01*
X129786074Y-124782876D01*
X129833693Y-124830495D01*
X129928931Y-124878114D01*
X130071788Y-124878114D01*
X130167026Y-124830495D01*
X129738455Y-124497161D02*
X129833693Y-124544780D01*
X130024169Y-124544780D01*
X130119407Y-124497161D01*
X130167026Y-124449542D01*
X130214645Y-124354304D01*
X130214645Y-124068590D01*
X130167026Y-123973352D01*
X130119407Y-123925733D01*
X130024169Y-123878114D01*
X129833693Y-123878114D01*
X129738455Y-123925733D01*
X128881312Y-124497161D02*
X128976550Y-124544780D01*
X129167026Y-124544780D01*
X129262264Y-124497161D01*
X129309883Y-124401923D01*
X129309883Y-124020971D01*
X129262264Y-123925733D01*
X129167026Y-123878114D01*
X128976550Y-123878114D01*
X128881312Y-123925733D01*
X128833693Y-124020971D01*
X128833693Y-124116209D01*
X129309883Y-124211447D01*
X128405121Y-124544780D02*
X128405121Y-123878114D01*
X128405121Y-124068590D02*
X128357502Y-123973352D01*
X128309883Y-123925733D01*
X128214645Y-123878114D01*
X128119407Y-123878114D01*
X127786074Y-124544780D02*
X127786074Y-123878114D01*
X127786074Y-123973352D02*
X127738455Y-123925733D01*
X127643217Y-123878114D01*
X127500360Y-123878114D01*
X127405121Y-123925733D01*
X127357502Y-124020971D01*
X127357502Y-124544780D01*
X127357502Y-124020971D02*
X127309883Y-123925733D01*
X127214645Y-123878114D01*
X127071788Y-123878114D01*
X126976550Y-123925733D01*
X126928931Y-124020971D01*
X126928931Y-124544780D01*
X126024169Y-124544780D02*
X126024169Y-124020971D01*
X126071788Y-123925733D01*
X126167026Y-123878114D01*
X126357502Y-123878114D01*
X126452740Y-123925733D01*
X126024169Y-124497161D02*
X126119407Y-124544780D01*
X126357502Y-124544780D01*
X126452740Y-124497161D01*
X126500360Y-124401923D01*
X126500360Y-124306685D01*
X126452740Y-124211447D01*
X126357502Y-124163828D01*
X126119407Y-124163828D01*
X126024169Y-124116209D01*
X125547979Y-123878114D02*
X125547979Y-124544780D01*
X125547979Y-123973352D02*
X125500360Y-123925733D01*
X125405121Y-123878114D01*
X125262264Y-123878114D01*
X125167026Y-123925733D01*
X125119407Y-124020971D01*
X125119407Y-124544780D01*
X124024169Y-124068590D02*
X124071788Y-124020971D01*
X124167026Y-123973352D01*
X124262264Y-123973352D01*
X124357502Y-124020971D01*
X124405121Y-124068590D01*
X124452740Y-124163828D01*
X124452740Y-124259066D01*
X124405121Y-124354304D01*
X124357502Y-124401923D01*
X124262264Y-124449542D01*
X124167026Y-124449542D01*
X124071788Y-124401923D01*
X124024169Y-124354304D01*
X124024169Y-123973352D02*
X124024169Y-124354304D01*
X123976550Y-124401923D01*
X123928931Y-124401923D01*
X123833693Y-124354304D01*
X123786074Y-124259066D01*
X123786074Y-124020971D01*
X123881312Y-123878114D01*
X124024169Y-123782876D01*
X124214645Y-123735257D01*
X124405121Y-123782876D01*
X124547979Y-123878114D01*
X124643217Y-124020971D01*
X124690836Y-124211447D01*
X124643217Y-124401923D01*
X124547979Y-124544780D01*
X124405121Y-124640019D01*
X124214645Y-124687638D01*
X124024169Y-124640019D01*
X123881312Y-124544780D01*
X122928931Y-123878114D02*
X122928931Y-124687638D01*
X122976550Y-124782876D01*
X123024169Y-124830495D01*
X123119407Y-124878114D01*
X123262264Y-124878114D01*
X123357502Y-124830495D01*
X122928931Y-124497161D02*
X123024169Y-124544780D01*
X123214645Y-124544780D01*
X123309883Y-124497161D01*
X123357502Y-124449542D01*
X123405121Y-124354304D01*
X123405121Y-124068590D01*
X123357502Y-123973352D01*
X123309883Y-123925733D01*
X123214645Y-123878114D01*
X123024169Y-123878114D01*
X122928931Y-123925733D01*
X122452740Y-124544780D02*
X122452740Y-123878114D01*
X122452740Y-123973352D02*
X122405121Y-123925733D01*
X122309883Y-123878114D01*
X122167026Y-123878114D01*
X122071788Y-123925733D01*
X122024169Y-124020971D01*
X122024169Y-124544780D01*
X122024169Y-124020971D02*
X121976550Y-123925733D01*
X121881312Y-123878114D01*
X121738455Y-123878114D01*
X121643217Y-123925733D01*
X121595598Y-124020971D01*
X121595598Y-124544780D01*
X120690836Y-124544780D02*
X120690836Y-124020971D01*
X120738455Y-123925733D01*
X120833693Y-123878114D01*
X121024169Y-123878114D01*
X121119407Y-123925733D01*
X120690836Y-124497161D02*
X120786074Y-124544780D01*
X121024169Y-124544780D01*
X121119407Y-124497161D01*
X121167026Y-124401923D01*
X121167026Y-124306685D01*
X121119407Y-124211447D01*
X121024169Y-124163828D01*
X120786074Y-124163828D01*
X120690836Y-124116209D01*
X120214645Y-124544780D02*
X120214645Y-123878114D01*
X120214645Y-123544780D02*
X120262264Y-123592400D01*
X120214645Y-123640019D01*
X120167026Y-123592400D01*
X120214645Y-123544780D01*
X120214645Y-123640019D01*
X119595598Y-124544780D02*
X119690836Y-124497161D01*
X119738455Y-124401923D01*
X119738455Y-123544780D01*
X119214645Y-124449542D02*
X119167026Y-124497161D01*
X119214645Y-124544780D01*
X119262264Y-124497161D01*
X119214645Y-124449542D01*
X119214645Y-124544780D01*
X118309883Y-124497161D02*
X118405121Y-124544780D01*
X118595598Y-124544780D01*
X118690836Y-124497161D01*
X118738455Y-124449542D01*
X118786074Y-124354304D01*
X118786074Y-124068590D01*
X118738455Y-123973352D01*
X118690836Y-123925733D01*
X118595598Y-123878114D01*
X118405121Y-123878114D01*
X118309883Y-123925733D01*
X117738455Y-124544780D02*
X117833693Y-124497161D01*
X117881312Y-124449542D01*
X117928931Y-124354304D01*
X117928931Y-124068590D01*
X117881312Y-123973352D01*
X117833693Y-123925733D01*
X117738455Y-123878114D01*
X117595598Y-123878114D01*
X117500360Y-123925733D01*
X117452740Y-123973352D01*
X117405121Y-124068590D01*
X117405121Y-124354304D01*
X117452740Y-124449542D01*
X117500360Y-124497161D01*
X117595598Y-124544780D01*
X117738455Y-124544780D01*
X116976550Y-124544780D02*
X116976550Y-123878114D01*
X116976550Y-123973352D02*
X116928931Y-123925733D01*
X116833693Y-123878114D01*
X116690836Y-123878114D01*
X116595598Y-123925733D01*
X116547979Y-124020971D01*
X116547979Y-124544780D01*
X116547979Y-124020971D02*
X116500360Y-123925733D01*
X116405121Y-123878114D01*
X116262264Y-123878114D01*
X116167026Y-123925733D01*
X116119407Y-124020971D01*
X116119407Y-124544780D01*
X114881312Y-124163828D02*
X114119407Y-124163828D01*
X112928931Y-123640019D02*
X112881312Y-123592400D01*
X112786074Y-123544780D01*
X112547979Y-123544780D01*
X112452740Y-123592400D01*
X112405121Y-123640019D01*
X112357502Y-123735257D01*
X112357502Y-123830495D01*
X112405121Y-123973352D01*
X112976550Y-124544780D01*
X112357502Y-124544780D01*
X111738455Y-123544780D02*
X111643217Y-123544780D01*
X111547979Y-123592400D01*
X111500360Y-123640019D01*
X111452740Y-123735257D01*
X111405121Y-123925733D01*
X111405121Y-124163828D01*
X111452740Y-124354304D01*
X111500360Y-124449542D01*
X111547979Y-124497161D01*
X111643217Y-124544780D01*
X111738455Y-124544780D01*
X111833693Y-124497161D01*
X111881312Y-124449542D01*
X111928931Y-124354304D01*
X111976550Y-124163828D01*
X111976550Y-123925733D01*
X111928931Y-123735257D01*
X111881312Y-123640019D01*
X111833693Y-123592400D01*
X111738455Y-123544780D01*
X111024169Y-123640019D02*
X110976550Y-123592400D01*
X110881312Y-123544780D01*
X110643217Y-123544780D01*
X110547979Y-123592400D01*
X110500360Y-123640019D01*
X110452740Y-123735257D01*
X110452740Y-123830495D01*
X110500360Y-123973352D01*
X111071788Y-124544780D01*
X110452740Y-124544780D01*
X109500360Y-124544780D02*
X110071788Y-124544780D01*
X109786074Y-124544780D02*
X109786074Y-123544780D01*
X109881312Y-123687638D01*
X109976550Y-123782876D01*
X110071788Y-123830495D01*
X109071788Y-124163828D02*
X108309883Y-124163828D01*
X107309883Y-124544780D02*
X107881312Y-124544780D01*
X107595598Y-124544780D02*
X107595598Y-123544780D01*
X107690836Y-123687638D01*
X107786074Y-123782876D01*
X107881312Y-123830495D01*
X106928931Y-123640019D02*
X106881312Y-123592400D01*
X106786074Y-123544780D01*
X106547979Y-123544780D01*
X106452740Y-123592400D01*
X106405121Y-123640019D01*
X106357502Y-123735257D01*
X106357502Y-123830495D01*
X106405121Y-123973352D01*
X106976550Y-124544780D01*
X106357502Y-124544780D01*
X105928931Y-124163828D02*
X105167026Y-124163828D01*
X104167026Y-124544780D02*
X104738455Y-124544780D01*
X104452740Y-124544780D02*
X104452740Y-123544780D01*
X104547979Y-123687638D01*
X104643217Y-123782876D01*
X104738455Y-123830495D01*
X103833693Y-123544780D02*
X103167026Y-123544780D01*
X103595598Y-124544780D01*
D11*
X101146552Y-77916019D02*
X101146552Y-77201733D01*
X101098933Y-77058876D01*
X101003695Y-76963638D01*
X100860838Y-76916019D01*
X100765600Y-76916019D01*
X102098933Y-76916019D02*
X101622742Y-76916019D01*
X101622742Y-77916019D01*
X103003695Y-77011257D02*
X102956076Y-76963638D01*
X102813219Y-76916019D01*
X102717980Y-76916019D01*
X102575123Y-76963638D01*
X102479885Y-77058876D01*
X102432266Y-77154114D01*
X102384647Y-77344590D01*
X102384647Y-77487447D01*
X102432266Y-77677923D01*
X102479885Y-77773161D01*
X102575123Y-77868400D01*
X102717980Y-77916019D01*
X102813219Y-77916019D01*
X102956076Y-77868400D01*
X103003695Y-77820780D01*
X103717980Y-77916019D02*
X103717980Y-77201733D01*
X103670361Y-77058876D01*
X103575123Y-76963638D01*
X103432266Y-76916019D01*
X103337028Y-76916019D01*
X104670361Y-76916019D02*
X104194171Y-76916019D01*
X104194171Y-77916019D01*
X105575123Y-77011257D02*
X105527504Y-76963638D01*
X105384647Y-76916019D01*
X105289409Y-76916019D01*
X105146552Y-76963638D01*
X105051314Y-77058876D01*
X105003695Y-77154114D01*
X104956076Y-77344590D01*
X104956076Y-77487447D01*
X105003695Y-77677923D01*
X105051314Y-77773161D01*
X105146552Y-77868400D01*
X105289409Y-77916019D01*
X105384647Y-77916019D01*
X105527504Y-77868400D01*
X105575123Y-77820780D01*
X106289409Y-77916019D02*
X106289409Y-77201733D01*
X106241790Y-77058876D01*
X106146552Y-76963638D01*
X106003695Y-76916019D01*
X105908457Y-76916019D01*
X107241790Y-76916019D02*
X106765600Y-76916019D01*
X106765600Y-77916019D01*
X108146552Y-77011257D02*
X108098933Y-76963638D01*
X107956076Y-76916019D01*
X107860838Y-76916019D01*
X107717980Y-76963638D01*
X107622742Y-77058876D01*
X107575123Y-77154114D01*
X107527504Y-77344590D01*
X107527504Y-77487447D01*
X107575123Y-77677923D01*
X107622742Y-77773161D01*
X107717980Y-77868400D01*
X107860838Y-77916019D01*
X107956076Y-77916019D01*
X108098933Y-77868400D01*
X108146552Y-77820780D01*
X108860838Y-77916019D02*
X108860838Y-77201733D01*
X108813219Y-77058876D01*
X108717980Y-76963638D01*
X108575123Y-76916019D01*
X108479885Y-76916019D01*
X109813219Y-76916019D02*
X109337028Y-76916019D01*
X109337028Y-77916019D01*
X110717980Y-77011257D02*
X110670361Y-76963638D01*
X110527504Y-76916019D01*
X110432266Y-76916019D01*
X110289409Y-76963638D01*
X110194171Y-77058876D01*
X110146552Y-77154114D01*
X110098933Y-77344590D01*
X110098933Y-77487447D01*
X110146552Y-77677923D01*
X110194171Y-77773161D01*
X110289409Y-77868400D01*
X110432266Y-77916019D01*
X110527504Y-77916019D01*
X110670361Y-77868400D01*
X110717980Y-77820780D01*
%LPC*%
D12*
X137833100Y-92468700D03*
D13*
X135293100Y-92468700D03*
X132753100Y-92468700D03*
X130213100Y-92468700D03*
X127673100Y-92468700D03*
X125133100Y-92468700D03*
X122593100Y-92468700D03*
X120053100Y-92468700D03*
X117513100Y-92468700D03*
X114973100Y-92468700D03*
X112433100Y-92468700D03*
X109893100Y-92468700D03*
X107353100Y-92468700D03*
X104813100Y-92468700D03*
X104813100Y-107708700D03*
X107353100Y-107708700D03*
X109893100Y-107708700D03*
X112433100Y-107708700D03*
X114973100Y-107708700D03*
X117513100Y-107708700D03*
X120053100Y-107708700D03*
X122593100Y-107708700D03*
X125133100Y-107708700D03*
X127673100Y-107708700D03*
X130213100Y-107708700D03*
X132753100Y-107708700D03*
X135293100Y-107708700D03*
X137833100Y-107708700D03*
D14*
X113538000Y-83312000D03*
D15*
X105918000Y-83312000D03*
D14*
X113538000Y-80899000D03*
D15*
X105918000Y-80899000D03*
D14*
X113538000Y-85725000D03*
D15*
X105918000Y-85725000D03*
D16*
X131288800Y-113080800D03*
X126288800Y-113080800D03*
D17*
G36*
X138439755Y-125680961D02*
G01*
X138449134Y-125683806D01*
X138457779Y-125688427D01*
X138465355Y-125694645D01*
X138471573Y-125702221D01*
X138476194Y-125710866D01*
X138479039Y-125720245D01*
X138480000Y-125730000D01*
X138480000Y-130760000D01*
X140970000Y-130760000D01*
X140979755Y-130760961D01*
X140989134Y-130763806D01*
X140997779Y-130768427D01*
X141005355Y-130774645D01*
X141011573Y-130782221D01*
X141016194Y-130790866D01*
X141019039Y-130800245D01*
X141020000Y-130810000D01*
X141020000Y-132080000D01*
X141019039Y-132089755D01*
X141016194Y-132099134D01*
X141011573Y-132107779D01*
X141005355Y-132115355D01*
X140997779Y-132121573D01*
X140989134Y-132126194D01*
X140979755Y-132129039D01*
X140970000Y-132130000D01*
X137160000Y-132130000D01*
X137150245Y-132129039D01*
X137140866Y-132126194D01*
X137132221Y-132121573D01*
X137124645Y-132115355D01*
X137118427Y-132107779D01*
X137113806Y-132099134D01*
X137110961Y-132089755D01*
X137110000Y-132080000D01*
X137110000Y-125730000D01*
X137110961Y-125720245D01*
X137113806Y-125710866D01*
X137118427Y-125702221D01*
X137124645Y-125694645D01*
X137132221Y-125688427D01*
X137140866Y-125683806D01*
X137150245Y-125680961D01*
X137160000Y-125680000D01*
X138430000Y-125680000D01*
X138439755Y-125680961D01*
G37*
D18*
X135255000Y-129540000D03*
X132715000Y-129540000D03*
X130175000Y-129540000D03*
X127635000Y-129540000D03*
X125095000Y-129540000D03*
X122555000Y-129540000D03*
X120015000Y-129540000D03*
X117475000Y-129540000D03*
X114935000Y-129540000D03*
X112395000Y-129540000D03*
X109855000Y-129540000D03*
X107315000Y-129540000D03*
X104775000Y-129540000D03*
X102235000Y-129540000D03*
D14*
X133959600Y-110388400D03*
D15*
X126339600Y-110388400D03*
D19*
X120548400Y-78587600D03*
X123088400Y-78587600D03*
X125628400Y-78587600D03*
D20*
X128168400Y-78587600D03*
D21*
X121386600Y-111201200D03*
D22*
X118846600Y-111201200D03*
X116306600Y-111201200D03*
X113766600Y-111201200D03*
X111226600Y-111201200D03*
X108686600Y-111201200D03*
X106146600Y-111201200D03*
X104902000Y-89306400D03*
X107442000Y-89306400D03*
X109982000Y-89306400D03*
X112522000Y-89306400D03*
X115062000Y-89306400D03*
X117602000Y-89306400D03*
D21*
X120142000Y-89306400D03*
M02*
