G04 #@! TF.GenerationSoftware,KiCad,Pcbnew,(5.1.8)-1*
G04 #@! TF.CreationDate,2021-12-18T01:10:41-08:00*
G04 #@! TF.ProjectId,ensoniq-cartridge,656e736f-6e69-4712-9d63-617274726964,rev?*
G04 #@! TF.SameCoordinates,Original*
G04 #@! TF.FileFunction,Soldermask,Bot*
G04 #@! TF.FilePolarity,Negative*
%FSLAX46Y46*%
G04 Gerber Fmt 4.6, Leading zero omitted, Abs format (unit mm)*
G04 Created by KiCad (PCBNEW (5.1.8)-1) date 2021-12-18 01:10:41*
%MOMM*%
%LPD*%
G01*
G04 APERTURE LIST*
%ADD10R,1.524000X1.524000*%
%ADD11C,1.524000*%
%ADD12O,1.400000X1.400000*%
%ADD13C,1.400000*%
%ADD14C,1.600000*%
%ADD15C,0.100000*%
%ADD16R,1.270000X7.620000*%
%ADD17O,1.700000X1.700000*%
%ADD18R,1.700000X1.700000*%
%ADD19R,1.600000X1.600000*%
%ADD20O,1.600000X1.600000*%
G04 APERTURE END LIST*
D10*
X137833100Y-92468700D03*
D11*
X135293100Y-92468700D03*
X132753100Y-92468700D03*
X130213100Y-92468700D03*
X127673100Y-92468700D03*
X125133100Y-92468700D03*
X122593100Y-92468700D03*
X120053100Y-92468700D03*
X117513100Y-92468700D03*
X114973100Y-92468700D03*
X112433100Y-92468700D03*
X109893100Y-92468700D03*
X107353100Y-92468700D03*
X104813100Y-92468700D03*
X104813100Y-107708700D03*
X107353100Y-107708700D03*
X109893100Y-107708700D03*
X112433100Y-107708700D03*
X114973100Y-107708700D03*
X117513100Y-107708700D03*
X120053100Y-107708700D03*
X122593100Y-107708700D03*
X125133100Y-107708700D03*
X127673100Y-107708700D03*
X130213100Y-107708700D03*
X132753100Y-107708700D03*
X135293100Y-107708700D03*
X137833100Y-107708700D03*
D12*
X113538000Y-83312000D03*
D13*
X105918000Y-83312000D03*
D12*
X113538000Y-80899000D03*
D13*
X105918000Y-80899000D03*
D12*
X113538000Y-85725000D03*
D13*
X105918000Y-85725000D03*
D14*
X131288800Y-113080800D03*
X126288800Y-113080800D03*
D15*
G36*
X138439755Y-125680961D02*
G01*
X138449134Y-125683806D01*
X138457779Y-125688427D01*
X138465355Y-125694645D01*
X138471573Y-125702221D01*
X138476194Y-125710866D01*
X138479039Y-125720245D01*
X138480000Y-125730000D01*
X138480000Y-130760000D01*
X140970000Y-130760000D01*
X140979755Y-130760961D01*
X140989134Y-130763806D01*
X140997779Y-130768427D01*
X141005355Y-130774645D01*
X141011573Y-130782221D01*
X141016194Y-130790866D01*
X141019039Y-130800245D01*
X141020000Y-130810000D01*
X141020000Y-132080000D01*
X141019039Y-132089755D01*
X141016194Y-132099134D01*
X141011573Y-132107779D01*
X141005355Y-132115355D01*
X140997779Y-132121573D01*
X140989134Y-132126194D01*
X140979755Y-132129039D01*
X140970000Y-132130000D01*
X137160000Y-132130000D01*
X137150245Y-132129039D01*
X137140866Y-132126194D01*
X137132221Y-132121573D01*
X137124645Y-132115355D01*
X137118427Y-132107779D01*
X137113806Y-132099134D01*
X137110961Y-132089755D01*
X137110000Y-132080000D01*
X137110000Y-125730000D01*
X137110961Y-125720245D01*
X137113806Y-125710866D01*
X137118427Y-125702221D01*
X137124645Y-125694645D01*
X137132221Y-125688427D01*
X137140866Y-125683806D01*
X137150245Y-125680961D01*
X137160000Y-125680000D01*
X138430000Y-125680000D01*
X138439755Y-125680961D01*
G37*
D16*
X135255000Y-129540000D03*
X132715000Y-129540000D03*
X130175000Y-129540000D03*
X127635000Y-129540000D03*
X125095000Y-129540000D03*
X122555000Y-129540000D03*
X120015000Y-129540000D03*
X117475000Y-129540000D03*
X114935000Y-129540000D03*
X112395000Y-129540000D03*
X109855000Y-129540000D03*
X107315000Y-129540000D03*
X104775000Y-129540000D03*
X102235000Y-129540000D03*
D12*
X133959600Y-110388400D03*
D13*
X126339600Y-110388400D03*
D17*
X120548400Y-78587600D03*
X123088400Y-78587600D03*
X125628400Y-78587600D03*
D18*
X128168400Y-78587600D03*
D19*
X121386600Y-111201200D03*
D20*
X118846600Y-111201200D03*
X116306600Y-111201200D03*
X113766600Y-111201200D03*
X111226600Y-111201200D03*
X108686600Y-111201200D03*
X106146600Y-111201200D03*
X104902000Y-89306400D03*
X107442000Y-89306400D03*
X109982000Y-89306400D03*
X112522000Y-89306400D03*
X115062000Y-89306400D03*
X117602000Y-89306400D03*
D19*
X120142000Y-89306400D03*
M02*
