G04 #@! TF.GenerationSoftware,KiCad,Pcbnew,(5.1.8)-1*
G04 #@! TF.CreationDate,2021-12-18T01:10:41-08:00*
G04 #@! TF.ProjectId,ensoniq-cartridge,656e736f-6e69-4712-9d63-617274726964,rev?*
G04 #@! TF.SameCoordinates,Original*
G04 #@! TF.FileFunction,Copper,L2,Bot*
G04 #@! TF.FilePolarity,Positive*
%FSLAX46Y46*%
G04 Gerber Fmt 4.6, Leading zero omitted, Abs format (unit mm)*
G04 Created by KiCad (PCBNEW (5.1.8)-1) date 2021-12-18 01:10:41*
%MOMM*%
%LPD*%
G01*
G04 APERTURE LIST*
G04 #@! TA.AperFunction,ComponentPad*
%ADD10R,1.524000X1.524000*%
G04 #@! TD*
G04 #@! TA.AperFunction,ComponentPad*
%ADD11C,1.524000*%
G04 #@! TD*
G04 #@! TA.AperFunction,ComponentPad*
%ADD12O,1.400000X1.400000*%
G04 #@! TD*
G04 #@! TA.AperFunction,ComponentPad*
%ADD13C,1.400000*%
G04 #@! TD*
G04 #@! TA.AperFunction,ComponentPad*
%ADD14C,1.600000*%
G04 #@! TD*
G04 #@! TA.AperFunction,ConnectorPad*
%ADD15C,0.100000*%
G04 #@! TD*
G04 #@! TA.AperFunction,ConnectorPad*
%ADD16R,1.270000X7.620000*%
G04 #@! TD*
G04 #@! TA.AperFunction,ComponentPad*
%ADD17O,1.700000X1.700000*%
G04 #@! TD*
G04 #@! TA.AperFunction,ComponentPad*
%ADD18R,1.700000X1.700000*%
G04 #@! TD*
G04 #@! TA.AperFunction,ComponentPad*
%ADD19R,1.600000X1.600000*%
G04 #@! TD*
G04 #@! TA.AperFunction,ComponentPad*
%ADD20O,1.600000X1.600000*%
G04 #@! TD*
G04 #@! TA.AperFunction,ViaPad*
%ADD21C,3.302000*%
G04 #@! TD*
G04 #@! TA.AperFunction,ViaPad*
%ADD22C,0.800000*%
G04 #@! TD*
G04 #@! TA.AperFunction,Conductor*
%ADD23C,0.250000*%
G04 #@! TD*
G04 APERTURE END LIST*
D10*
X137833100Y-92468700D03*
D11*
X135293100Y-92468700D03*
X132753100Y-92468700D03*
X130213100Y-92468700D03*
X127673100Y-92468700D03*
X125133100Y-92468700D03*
X122593100Y-92468700D03*
X120053100Y-92468700D03*
X117513100Y-92468700D03*
X114973100Y-92468700D03*
X112433100Y-92468700D03*
X109893100Y-92468700D03*
X107353100Y-92468700D03*
X104813100Y-92468700D03*
X104813100Y-107708700D03*
X107353100Y-107708700D03*
X109893100Y-107708700D03*
X112433100Y-107708700D03*
X114973100Y-107708700D03*
X117513100Y-107708700D03*
X120053100Y-107708700D03*
X122593100Y-107708700D03*
X125133100Y-107708700D03*
X127673100Y-107708700D03*
X130213100Y-107708700D03*
X132753100Y-107708700D03*
X135293100Y-107708700D03*
X137833100Y-107708700D03*
D12*
X113538000Y-83312000D03*
D13*
X105918000Y-83312000D03*
D12*
X113538000Y-80899000D03*
D13*
X105918000Y-80899000D03*
D12*
X113538000Y-85725000D03*
D13*
X105918000Y-85725000D03*
D14*
X131288800Y-113080800D03*
X126288800Y-113080800D03*
G04 #@! TA.AperFunction,ConnectorPad*
D15*
G36*
X138439755Y-125680961D02*
G01*
X138449134Y-125683806D01*
X138457779Y-125688427D01*
X138465355Y-125694645D01*
X138471573Y-125702221D01*
X138476194Y-125710866D01*
X138479039Y-125720245D01*
X138480000Y-125730000D01*
X138480000Y-130760000D01*
X140970000Y-130760000D01*
X140979755Y-130760961D01*
X140989134Y-130763806D01*
X140997779Y-130768427D01*
X141005355Y-130774645D01*
X141011573Y-130782221D01*
X141016194Y-130790866D01*
X141019039Y-130800245D01*
X141020000Y-130810000D01*
X141020000Y-132080000D01*
X141019039Y-132089755D01*
X141016194Y-132099134D01*
X141011573Y-132107779D01*
X141005355Y-132115355D01*
X140997779Y-132121573D01*
X140989134Y-132126194D01*
X140979755Y-132129039D01*
X140970000Y-132130000D01*
X137160000Y-132130000D01*
X137150245Y-132129039D01*
X137140866Y-132126194D01*
X137132221Y-132121573D01*
X137124645Y-132115355D01*
X137118427Y-132107779D01*
X137113806Y-132099134D01*
X137110961Y-132089755D01*
X137110000Y-132080000D01*
X137110000Y-125730000D01*
X137110961Y-125720245D01*
X137113806Y-125710866D01*
X137118427Y-125702221D01*
X137124645Y-125694645D01*
X137132221Y-125688427D01*
X137140866Y-125683806D01*
X137150245Y-125680961D01*
X137160000Y-125680000D01*
X138430000Y-125680000D01*
X138439755Y-125680961D01*
G37*
G04 #@! TD.AperFunction*
D16*
X135255000Y-129540000D03*
X132715000Y-129540000D03*
X130175000Y-129540000D03*
X127635000Y-129540000D03*
X125095000Y-129540000D03*
X122555000Y-129540000D03*
X120015000Y-129540000D03*
X117475000Y-129540000D03*
X114935000Y-129540000D03*
X112395000Y-129540000D03*
X109855000Y-129540000D03*
X107315000Y-129540000D03*
X104775000Y-129540000D03*
X102235000Y-129540000D03*
D12*
X133959600Y-110388400D03*
D13*
X126339600Y-110388400D03*
D17*
X120548400Y-78587600D03*
X123088400Y-78587600D03*
X125628400Y-78587600D03*
D18*
X128168400Y-78587600D03*
D19*
X121386600Y-111201200D03*
D20*
X118846600Y-111201200D03*
X116306600Y-111201200D03*
X113766600Y-111201200D03*
X111226600Y-111201200D03*
X108686600Y-111201200D03*
X106146600Y-111201200D03*
X104902000Y-89306400D03*
X107442000Y-89306400D03*
X109982000Y-89306400D03*
X112522000Y-89306400D03*
X115062000Y-89306400D03*
X117602000Y-89306400D03*
D19*
X120142000Y-89306400D03*
D21*
X140335000Y-114300000D03*
X100330000Y-84455000D03*
X100330000Y-114300000D03*
X140335000Y-84455000D03*
D22*
X105257600Y-97129600D03*
X117805200Y-104902000D03*
X131318000Y-106426000D03*
X133756400Y-114757200D03*
X131775200Y-115316000D03*
X124155200Y-112115600D03*
X124311550Y-109470368D03*
X110591600Y-87579200D03*
X131165600Y-118414800D03*
X133986467Y-116418987D03*
X136652000Y-111404400D03*
D23*
X135255000Y-129540000D02*
X135255000Y-127000000D01*
X137795000Y-129540000D02*
X137795000Y-126365000D01*
X137668000Y-129413000D02*
X137668000Y-125476000D01*
X137668000Y-129413000D02*
X137795000Y-129540000D01*
X135255000Y-129540000D02*
X137795000Y-129540000D01*
X113030000Y-104902000D02*
X117805200Y-104902000D01*
X105257600Y-97129600D02*
X113030000Y-104902000D01*
X131318000Y-106426000D02*
X131318000Y-113051600D01*
X131318000Y-113051600D02*
X131288800Y-113080800D01*
X137795000Y-129540000D02*
X137795000Y-121793000D01*
X135788400Y-119786400D02*
X135788400Y-116789200D01*
X137795000Y-121793000D02*
X135788400Y-119786400D01*
X135788400Y-116789200D02*
X133756400Y-114757200D01*
X120142000Y-86614000D02*
X128168400Y-78587600D01*
X120142000Y-89306400D02*
X120142000Y-86614000D01*
X123680101Y-93555701D02*
X137833100Y-107708700D01*
X123680101Y-91794501D02*
X123680101Y-93555701D01*
X121192000Y-89306400D02*
X123680101Y-91794501D01*
X120142000Y-89306400D02*
X121192000Y-89306400D01*
X118846600Y-109042200D02*
X117513100Y-107708700D01*
X118846600Y-111201200D02*
X118846600Y-109042200D01*
X127039599Y-111088399D02*
X126339600Y-110388400D01*
X131209515Y-115316000D02*
X127039599Y-111146084D01*
X131775200Y-115316000D02*
X131209515Y-115316000D01*
X127039599Y-111146084D02*
X127039599Y-111088399D01*
X124155200Y-109626718D02*
X124311550Y-109470368D01*
X124155200Y-112115600D02*
X124155200Y-109626718D01*
X112395000Y-129540000D02*
X112395000Y-119114602D01*
X112395000Y-119114602D02*
X103726099Y-110445701D01*
X103726099Y-110445701D02*
X103726099Y-97173331D01*
X103726099Y-97173331D02*
X107353100Y-93546330D01*
X107353100Y-93546330D02*
X107353100Y-92468700D01*
X103276088Y-110632101D02*
X103276088Y-96317112D01*
X109855000Y-129540000D02*
X109855000Y-117211013D01*
X109855000Y-117211013D02*
X103276088Y-110632101D01*
X103276088Y-96317112D02*
X106266099Y-93327101D01*
X108806099Y-91381699D02*
X109893100Y-92468700D01*
X106266099Y-93327101D02*
X106266099Y-91946939D01*
X106266099Y-91946939D02*
X106831339Y-91381699D01*
X106831339Y-91381699D02*
X108806099Y-91381699D01*
X107315000Y-129540000D02*
X107315000Y-115307417D01*
X106214535Y-90931689D02*
X110896089Y-90931689D01*
X105814801Y-91331423D02*
X106214535Y-90931689D01*
X104341615Y-91331423D02*
X105814801Y-91331423D01*
X102826082Y-92846956D02*
X104341615Y-91331423D01*
X110896089Y-90931689D02*
X112433100Y-92468700D01*
X102826081Y-110818498D02*
X102826082Y-92846956D01*
X107315000Y-115307417D02*
X102826081Y-110818498D01*
X107504198Y-87579200D02*
X110591600Y-87579200D01*
X103968817Y-90431401D02*
X105442001Y-90431401D01*
X106316999Y-88766399D02*
X107504198Y-87579200D01*
X101926059Y-111191299D02*
X101926062Y-92474155D01*
X102235000Y-129540000D02*
X102235000Y-115319482D01*
X102306001Y-111571244D02*
X101926059Y-111191299D01*
X101926062Y-92474155D02*
X103968817Y-90431401D01*
X102235000Y-115319482D02*
X102306001Y-115248481D01*
X102306001Y-115248481D02*
X102306001Y-111571244D01*
X106316999Y-89556403D02*
X106316999Y-88766399D01*
X105442001Y-90431401D02*
X106316999Y-89556403D01*
X104775000Y-129540000D02*
X104775000Y-126365000D01*
X115969209Y-90924809D02*
X117513100Y-92468700D01*
X114378997Y-90924809D02*
X115969209Y-90924809D01*
X104155216Y-90881412D02*
X105628401Y-90881412D01*
X102376070Y-111004899D02*
X102376072Y-92660555D01*
X106028134Y-90481678D02*
X113935866Y-90481678D01*
X104775000Y-129540000D02*
X104775000Y-113403829D01*
X105628401Y-90881412D02*
X106028134Y-90481678D01*
X104775000Y-113403829D02*
X102376070Y-111004899D01*
X102376072Y-92660555D02*
X104155216Y-90881412D01*
X113935866Y-90481678D02*
X114378997Y-90924809D01*
X127635000Y-116668402D02*
X122593100Y-111626502D01*
X127635000Y-129540000D02*
X127635000Y-116668402D01*
X122593100Y-111626502D02*
X122593100Y-107708700D01*
X118966099Y-92312937D02*
X118966099Y-104081699D01*
X116875599Y-90881412D02*
X117534574Y-90881412D01*
X113396998Y-89306400D02*
X114521999Y-90431401D01*
X116425589Y-90431401D02*
X116875599Y-90881412D01*
X112522000Y-89306400D02*
X113396998Y-89306400D01*
X118966099Y-104081699D02*
X122593100Y-107708700D01*
X114521999Y-90431401D02*
X116425589Y-90431401D01*
X117534574Y-90881412D02*
X118966099Y-92312937D01*
X114935000Y-119989600D02*
X106146600Y-111201200D01*
X114935000Y-129540000D02*
X114935000Y-119989600D01*
X106146600Y-109042200D02*
X104813100Y-107708700D01*
X106146600Y-111201200D02*
X106146600Y-109042200D01*
X117475000Y-119989600D02*
X108686600Y-111201200D01*
X117475000Y-129540000D02*
X117475000Y-119989600D01*
X108686600Y-109042200D02*
X107353100Y-107708700D01*
X108686600Y-111201200D02*
X108686600Y-109042200D01*
X120015000Y-119989600D02*
X111226600Y-111201200D01*
X120015000Y-129540000D02*
X120015000Y-119989600D01*
X111226600Y-109042200D02*
X109893100Y-107708700D01*
X111226600Y-111201200D02*
X111226600Y-109042200D01*
X122555000Y-119989600D02*
X113766600Y-111201200D01*
X122555000Y-129540000D02*
X122555000Y-119989600D01*
X113766600Y-109042200D02*
X112433100Y-107708700D01*
X113766600Y-111201200D02*
X113766600Y-109042200D01*
X125095000Y-129540000D02*
X125095000Y-130175000D01*
X116306600Y-109042200D02*
X114973100Y-107708700D01*
X116306600Y-111201200D02*
X116306600Y-109042200D01*
X125095000Y-129540000D02*
X125095000Y-119989600D01*
X125095000Y-119989600D02*
X116306600Y-111201200D01*
X118237000Y-80899000D02*
X120548400Y-78587600D01*
X113538000Y-80899000D02*
X118237000Y-80899000D01*
X118364000Y-83312000D02*
X123088400Y-78587600D01*
X113538000Y-83312000D02*
X118364000Y-83312000D01*
X118491000Y-85725000D02*
X125628400Y-78587600D01*
X113538000Y-85725000D02*
X118491000Y-85725000D01*
X131165600Y-118414800D02*
X133161413Y-116418987D01*
X133161413Y-116418987D02*
X133986467Y-116418987D01*
X136652000Y-107458838D02*
X136652000Y-111404400D01*
X135814861Y-106621699D02*
X136652000Y-107458838D01*
X121140101Y-92941641D02*
X134820158Y-106621699D01*
X116476999Y-89846401D02*
X117061999Y-90431401D01*
X116476999Y-88663999D02*
X116476999Y-89846401D01*
X134820158Y-106621699D02*
X135814861Y-106621699D01*
X113538000Y-85725000D02*
X116476999Y-88663999D01*
X121140101Y-91946939D02*
X121140101Y-92941641D01*
X119624563Y-90431401D02*
X121140101Y-91946939D01*
X117061999Y-90431401D02*
X119624563Y-90431401D01*
X135293100Y-112147496D02*
X135293100Y-107708700D01*
X130175000Y-129540000D02*
X130175000Y-117989202D01*
X130175000Y-117989202D02*
X133031398Y-115132804D01*
X133031398Y-114409198D02*
X135293100Y-112147496D01*
X133031398Y-115132804D02*
X133031398Y-114409198D01*
M02*
