M48
; DRILL file {KiCad (5.1.8)-1} date 12/18/21 01:11:50
; FORMAT={-:-/ absolute / metric / decimal}
; #@! TF.CreationDate,2021-12-18T01:11:50-08:00
; #@! TF.GenerationSoftware,Kicad,Pcbnew,(5.1.8)-1
; #@! TF.FileFunction,Plated,1,2,PTH
FMAT,2
METRIC
T1C0.400
T2C0.700
T3C0.800
T4C0.813
T5C1.000
T6C2.921
%
G90
G05
T1
X105.258Y-97.13
X110.592Y-87.579
X117.805Y-104.902
X124.155Y-112.116
X124.312Y-109.47
X131.166Y-118.415
X131.318Y-106.426
X131.775Y-115.316
X133.756Y-114.757
X133.986Y-116.419
X136.652Y-111.404
T2
X105.918Y-85.725
X113.538Y-85.725
X105.918Y-83.312
X113.538Y-83.312
X126.34Y-110.388
X133.96Y-110.388
X105.918Y-80.899
X113.538Y-80.899
T3
X104.902Y-89.306
X107.442Y-89.306
X109.982Y-89.306
X112.522Y-89.306
X115.062Y-89.306
X117.602Y-89.306
X120.142Y-89.306
X126.289Y-113.081
X131.289Y-113.081
X106.147Y-111.201
X108.687Y-111.201
X111.227Y-111.201
X113.767Y-111.201
X116.307Y-111.201
X118.847Y-111.201
X121.387Y-111.201
T4
X104.813Y-92.469
X104.813Y-107.709
X107.353Y-92.469
X107.353Y-107.709
X109.893Y-92.469
X109.893Y-107.709
X112.433Y-92.469
X112.433Y-107.709
X114.973Y-92.469
X114.973Y-107.709
X117.513Y-92.469
X117.513Y-107.709
X120.053Y-92.469
X120.053Y-107.709
X122.593Y-92.469
X122.593Y-107.709
X125.133Y-92.469
X125.133Y-107.709
X127.673Y-92.469
X127.673Y-107.709
X130.213Y-92.469
X130.213Y-107.709
X132.753Y-92.469
X132.753Y-107.709
X135.293Y-92.469
X135.293Y-107.709
X137.833Y-92.469
X137.833Y-107.709
T5
X120.548Y-78.588
X123.088Y-78.588
X125.628Y-78.588
X128.168Y-78.588
T6
X100.33Y-84.455
X100.33Y-114.3
X140.335Y-84.455
X140.335Y-114.3
T0
M30
